<?xml version="1.0" standalone="no"?>
<svg xmlns:xlink="http://www.w3.org/1999/xlink" id="wave" style="transform:rotate(0deg); transition: 0.3s" viewBox="0 0 1440 280" version="1.1" xmlns="http://www.w3.org/2000/svg"><defs><linearGradient id="sw-gradient-0" x1="0" x2="0" y1="1" y2="0"><stop stop-color="rgba(4.234, 58.027, 148.347, 1)" offset="0%"/><stop stop-color="rgba(0, 112.461, 255, 1)" offset="100%"/></linearGradient></defs><path style="transform:translate(0, 0px); opacity:1" fill="url(#sw-gradient-0)" d="M0,196L34.3,182C68.6,168,137,140,206,140C274.3,140,343,168,411,163.3C480,159,549,121,617,98C685.7,75,754,65,823,84C891.4,103,960,149,1029,168C1097.1,187,1166,177,1234,163.3C1302.9,149,1371,131,1440,112C1508.6,93,1577,75,1646,84C1714.3,93,1783,131,1851,121.3C1920,112,1989,56,2057,37.3C2125.7,19,2194,37,2263,46.7C2331.4,56,2400,56,2469,56C2537.1,56,2606,56,2674,56C2742.9,56,2811,56,2880,65.3C2948.6,75,3017,93,3086,88.7C3154.3,84,3223,56,3291,51.3C3360,47,3429,65,3497,65.3C3565.7,65,3634,47,3703,70C3771.4,93,3840,159,3909,163.3C3977.1,168,4046,112,4114,79.3C4182.9,47,4251,37,4320,42C4388.6,47,4457,65,4526,65.3C4594.3,65,4663,47,4731,51.3C4800,56,4869,84,4903,98L4937.1,112L4937.1,280L4902.9,280C4868.6,280,4800,280,4731,280C4662.9,280,4594,280,4526,280C4457.1,280,4389,280,4320,280C4251.4,280,4183,280,4114,280C4045.7,280,3977,280,3909,280C3840,280,3771,280,3703,280C3634.3,280,3566,280,3497,280C3428.6,280,3360,280,3291,280C3222.9,280,3154,280,3086,280C3017.1,280,2949,280,2880,280C2811.4,280,2743,280,2674,280C2605.7,280,2537,280,2469,280C2400,280,2331,280,2263,280C2194.3,280,2126,280,2057,280C1988.6,280,1920,280,1851,280C1782.9,280,1714,280,1646,280C1577.1,280,1509,280,1440,280C1371.4,280,1303,280,1234,280C1165.7,280,1097,280,1029,280C960,280,891,280,823,280C754.3,280,686,280,617,280C548.6,280,480,280,411,280C342.9,280,274,280,206,280C137.1,280,69,280,34,280L0,280Z"/></svg>