<svg xmlns="http://www.w3.org/2000/svg" version="1.1" xmlns:xlink="http://www.w3.org/1999/xlink" xmlns:svgjs="http://svgjs.dev/svgjs" width="360" height="360" preserveAspectRatio="none" viewBox="0 0 360 360"><g mask="url(&quot;#SvgjsMask1051&quot;)" fill="none"><rect width="360" height="360" x="0" y="0" fill="rgba(0, 71, 59, 1)"></rect><path d="M0,153.424C30.099,154.401,60.438,149.689,86.486,134.575C113.245,119.049,137.704,96.758,147.961,67.571C157.9,39.289,146.63,9.167,140.899,-20.258C135.456,-48.203,133.218,-77.786,115.333,-99.937C97.164,-122.44,69.491,-134.034,41.938,-142.826C13.865,-151.784,-15.841,-158.516,-44.301,-150.875C-73.083,-143.147,-94.466,-121.129,-115.917,-100.442C-139.317,-77.876,-167.657,-56.854,-174.701,-25.118C-181.897,7.306,-170.781,41.695,-153.798,70.237C-137.777,97.163,-110.511,114.171,-82.952,129.077C-57.081,143.07,-29.398,152.47,0,153.424" fill="#003f34"></path><path d="M360 497.454C391.397 503.231 427.865 524.513 453.488 505.47 479.568 486.087 462.228 442.381 474.557 412.317 486.142 384.067 526.79 366.865 522.738 336.602 518.6949999999999 306.407 478.719 297.198 456.372 276.494 437.027 258.572 425.272 231.264 400.203 223.08 374.927 214.828 348.79 227.906 322.663 232.84300000000002 293.332 238.385 260.11400000000003 234.377 237.473 253.829 214.02 273.979 204.108 306.386 201.23 337.172 198.431 367.118 205.824 397.605 221.643 423.186 236.435 447.105 261.503 461.406 286.282 474.707 309.408 487.121 334.186 492.70500000000004 360 497.454" fill="#005042"></path></g><defs><mask id="SvgjsMask1051"><rect width="360" height="360" fill="#ffffff"></rect></mask></defs></svg>