<svg xmlns="http://www.w3.org/2000/svg" version="1.1" xmlns:xlink="http://www.w3.org/1999/xlink" xmlns:svgjs="http://svgjs.dev/svgjs" width="1440" height="560" preserveAspectRatio="none" viewBox="0 0 1440 560"><g mask="url(&quot;#SvgjsMask1004&quot;)" fill="none"><rect width="1440" height="560" x="0" y="0" fill="rgba(197, 66, 0, 1)"></rect><path d="M0,502.432C108.507,505.194,238.376,569.032,318.972,496.33C402.687,420.815,331.129,274.782,369.778,168.872C403.756,75.762,534.682,22.992,527.784,-75.884C520.958,-173.726,395.121,-213.088,337.589,-292.522C272.274,-382.701,265.851,-519.173,168.1,-572.495C68.105,-627.041,-58.537,-603.419,-166.657,-567.582C-272.608,-532.464,-358.519,-458.351,-431.379,-373.792C-504.081,-289.416,-587.402,-195.191,-583.433,-83.885C-579.533,25.477,-459.257,89.469,-411.351,187.858C-365.182,282.678,-392.476,416.285,-308.702,480.35C-225.06,544.314,-105.262,499.752,0,502.432" fill="#8a2e00"></path><path d="M1440 869.155C1508.523 862.076 1579.278 902.533 1642.395 874.933 1708.683 845.946 1747.107 779.05 1785.825 717.933 1829.807 648.5070000000001 1886.039 578.519 1882.184 496.424 1878.232 412.283 1825.882 336.63 1765.175 278.235 1707.481 222.738 1628.828 201.05399999999997 1551.942 178.76100000000002 1475.3029999999999 156.54000000000002 1396.938 130.5 1319.307 148.957 1239.724 167.878 1165.71 214.67399999999998 1118.856 281.727 1073.964 345.973 1061.942 428.678 1069.328 506.705 1075.821 575.296 1135.367 623.777 1157.413 689.053 1183.141 765.231 1141.0140000000001 876.511 1208.819 919.725 1276.715 962.9970000000001 1359.913 877.429 1440 869.155" fill="#ff5601"></path></g><defs><mask id="SvgjsMask1004"><rect width="1440" height="560" fill="#ffffff"></rect></mask></defs></svg>