<svg xmlns="http://www.w3.org/2000/svg" version="1.1" xmlns:xlink="http://www.w3.org/1999/xlink" xmlns:svgjs="http://svgjs.dev/svgjs" width="580" height="1440" preserveAspectRatio="none" viewBox="0 0 580 1440"><g mask="url(&quot;#SvgjsMask1023&quot;)" fill="none"><rect width="580" height="1440" x="0" y="0" fill="rgba(197, 66, 0, 1)"></rect><path d="M631.2330742525279 309.3472947526927L535.1117803749917 268.5462262001961 590.4320057000313 405.46858863022896z" fill="rgba(81, 39, 0, 0.4)" class="triangle-float1"></path><path d="M200.51336710153203 394.5599641410192L313.04484910355734 495.8837656464723 301.83716860698513 282.0284821389938z" fill="rgba(81, 39, 0, 0.4)" class="triangle-float1"></path><path d="M150.477,1048.256C188.894,1047.948,229.208,1035.111,247.136,1001.133C264.24,968.717,245.948,932.509,228.576,900.235C209.804,865.36,189.966,824.6,150.477,821.559C107.391,818.241,69.126,848.47,48.34,886.357C28.341,922.809,28.912,967.538,51.097,1002.703C71.936,1035.736,111.421,1048.569,150.477,1048.256" fill="rgba(81, 39, 0, 0.4)" class="triangle-float2"></path><path d="M222.338,790.487C239.006,790.527,256.407,785.04,264.472,770.453C272.344,756.215,266.104,739.637,258.364,725.327C250.086,710.021,239.739,692.485,222.338,692.547C204.991,692.609,194.97,710.304,186.754,725.582C179.123,739.772,172.807,756.123,180.553,770.251C188.527,784.796,205.751,790.447,222.338,790.487" fill="rgba(81, 39, 0, 0.4)" class="triangle-float1"></path><path d="M259.8437776355896 968.9782105360989L401.9230137318043 1054.3480282878334 487.2928314835388 912.2687921916187 345.21359538732406 826.8989744398842z" fill="rgba(81, 39, 0, 0.4)" class="triangle-float2"></path><path d="M619.4274080798842 1133.242312712262L453.0635396131374 1174.553119355618 555.2574020576228 1284.1426197976507z" fill="rgba(81, 39, 0, 0.4)" class="triangle-float3"></path></g><defs><mask id="SvgjsMask1023"><rect width="580" height="1440" fill="#ffffff"></rect></mask><style>
                @keyframes float1 {
                    0%{transform: translate(0, 0)}
                    50%{transform: translate(-10px, 0)}
                    100%{transform: translate(0, 0)}
                }

                .triangle-float1 {
                    animation: float1 5s infinite;
                }

                @keyframes float2 {
                    0%{transform: translate(0, 0)}
                    50%{transform: translate(-5px, -5px)}
                    100%{transform: translate(0, 0)}
                }

                .triangle-float2 {
                    animation: float2 4s infinite;
                }

                @keyframes float3 {
                    0%{transform: translate(0, 0)}
                    50%{transform: translate(0, -10px)}
                    100%{transform: translate(0, 0)}
                }

                .triangle-float3 {
                    animation: float3 6s infinite;
                }
            </style></defs></svg>