<svg xmlns="http://www.w3.org/2000/svg" version="1.1" xmlns:xlink="http://www.w3.org/1999/xlink" xmlns:svgjs="http://svgjs.dev/svgjs" width="560" height="1440" preserveAspectRatio="none" viewBox="0 0 560 1440"><g mask="url(&quot;#SvgjsMask1034&quot;)" fill="none"><rect width="560" height="1440" x="0" y="0" fill="rgba(5, 38, 141, 0.99)"></rect><path d="M521.391,266.053C574.87,266.605,632.386,253.559,659.029,207.186C685.602,160.935,668.725,104.206,640.314,59.061C613.999,17.245,570.793,-12.211,521.391,-11.523C473.078,-10.85,433.384,21.139,408.07,62.295C381.224,105.942,363.683,159.612,388.589,204.394C414.014,250.11,469.084,265.513,521.391,266.053" fill="rgba(4, 10, 121, 0.4)" class="triangle-float2"></path><path d="M73.64437593449615 1068.265244893966L220.22051326944393 1023.4524225409741 175.40769091645205 876.8762852060263 28.831553581504316 921.6891075590181z" fill="rgba(4, 10, 121, 0.4)" class="triangle-float3"></path><path d="M523.083,1620.52C576.34,1621.112,619.449,1580.137,643.48,1532.607C665.185,1489.678,659.252,1440.023,635.487,1398.199C611.391,1355.793,571.754,1323.882,523.083,1320.72C468.339,1317.164,408.746,1333.748,382.176,1381.743C356.161,1428.735,379.937,1483.722,407.235,1529.98C433.932,1575.219,470.557,1619.936,523.083,1620.52" fill="rgba(4, 10, 121, 0.4)" class="triangle-float1"></path><path d="M83.351,622.394C117.073,622.285,147.386,604.411,165.55,575.999C185.404,544.943,197.037,505.466,178.45,473.636C159.973,441.995,119.969,433.935,83.351,435.233C49.337,436.439,16.51,450.652,-0.747,479.987C-18.237,509.718,-17.314,546.832,0.226,576.533C17.473,605.738,49.434,622.504,83.351,622.394" fill="rgba(4, 10, 121, 0.4)" class="triangle-float2"></path><path d="M174.09745578073117 639.2597760289533L235.98101191920188 677.9289136470439 263.0429402771025 565.7690106302925z" fill="rgba(4, 10, 121, 0.4)" class="triangle-float1"></path><path d="M296.03299163977823 364.2289687193584L322.83843922889264 421.7134365815705 395.6624172276536 352.7630312667928z" fill="rgba(4, 10, 121, 0.4)" class="triangle-float2"></path><path d="M274.0592305912448 771.4558977002855L195.52401308636595 907.4828846022083 331.5509999882888 986.0181021070872 410.0862174931676 849.9911152051643z" fill="rgba(4, 10, 121, 0.4)" class="triangle-float3"></path></g><defs><mask id="SvgjsMask1034"><rect width="560" height="1440" fill="#ffffff"></rect></mask><style>
                @keyframes float1 {
                    0%{transform: translate(0, 0)}
                    50%{transform: translate(-10px, 0)}
                    100%{transform: translate(0, 0)}
                }

                .triangle-float1 {
                    animation: float1 5s infinite;
                }

                @keyframes float2 {
                    0%{transform: translate(0, 0)}
                    50%{transform: translate(-5px, -5px)}
                    100%{transform: translate(0, 0)}
                }

                .triangle-float2 {
                    animation: float2 4s infinite;
                }

                @keyframes float3 {
                    0%{transform: translate(0, 0)}
                    50%{transform: translate(0, -10px)}
                    100%{transform: translate(0, 0)}
                }

                .triangle-float3 {
                    animation: float3 6s infinite;
                }
            </style></defs></svg>